<?xml version="1.0" encoding="utf-8"?>
<!-- Generator: Adobe Illustrator 27.3.1, SVG Export Plug-In . SVG Version: 6.00 Build 0)  -->
<svg version="1.1" id="Layer_1" xmlns="http://www.w3.org/2000/svg" xmlns:xlink="http://www.w3.org/1999/xlink" x="0px" y="0px"
	 viewBox="0 0 498.6 498.6" enable-background="new 0 0 498.6 498.6" xml:space="preserve">
<g>
	<g>
		<g>
			<g>
				<linearGradient id="SVGID_1_" gradientUnits="userSpaceOnUse" x1="31.8585" y1="7.3223" x2="500.3312" y2="528.6578">
					<stop  offset="0" style="stop-color:#5C8FFF"/>
					<stop  offset="1" style="stop-color:#325BBA"/>
				</linearGradient>
				<path fill="url(#SVGID_1_)" d="M498.6,0v498.6c0,0,0,0,0,0H0V0H498.6z"/>
			</g>
		</g>
	</g>
	<g>
		<g>
			<path fill="#FFFFFF" d="M387.3,221l0-0.2l-11.2-51.6c-2.4-17.9-17.7-31.4-35.8-31.4h-21.2c-5.4,0-9.8,4.1-10.4,9.3h-119
				c-0.5-5.2-5-9.3-10.4-9.3h-21.2c-18.1,0-33.4,13.5-35.8,31.4l-11.2,51.6l0,0.2c-1.8,14.3,1.9,28,10.2,37.4
				c7.3,8.2,17.3,12.6,28.9,12.6c9.8,0,19.5-3.2,26.5-8.8c6.3-5,10.4-11.7,12.1-19.5h120.6c1.7,7.8,5.8,14.5,12.1,19.5
				c7,5.6,16.7,8.8,26.5,8.8c11.6,0,21.6-4.4,28.9-12.6C385.4,249,389.1,235.3,387.3,221z M162.2,232.7h-4.4v4.5
				c0,4.1-3.3,7.4-7.4,7.4c-2,0-3.9-0.8-5.2-2.2c-1.3-1.3-2.2-3.2-2.2-5.2v-4.5h-4.4c-4.1,0-7.4-3.3-7.4-7.4c0-2,0.8-3.9,2.2-5.2
				c1.3-1.3,3.2-2.2,5.2-2.2h4.4v-4.5c0-4.1,3.3-7.4,7.4-7.4c2,0,3.9,0.8,5.2,2.2c1.3,1.3,2.2,3.2,2.2,5.2v4.5h4.4
				c4.1,0,7.4,3.3,7.4,7.4C169.6,229.4,166.3,232.7,162.2,232.7z M156.5,184.6c-7.9,0-14.3-6.4-14.3-14.3c0-7.9,6.4-14.3,14.3-14.3
				c7.9,0,14.4,6.4,14.4,14.3C170.9,178.2,164.4,184.6,156.5,184.6z M311.2,227.2c0,2.7-2.2,4.9-4.9,4.9H187.6
				c-2.7,0-4.9-2.2-4.9-4.9v-19.4c0-3.4,2.8-5.9,6.2-5.8h0.1c3.9,0,7-3.1,7-7c0-3.9-3.2-7-7-7h-0.1c-3.4,0-6.2-2.5-6.2-5.8v-19.4
				c0-2.7,2.2-4.9,4.9-4.9h118.7c2.7,0,4.9,2.2,4.9,4.9V227.2z M187.1,194.9c0-1.4,1.1-2.6,2.6-2.6c1.4,0,2.6,1.1,2.6,2.6
				c0,1.4-1.1,2.6-2.6,2.6C188.2,197.5,187.1,196.3,187.1,194.9z M342.1,155.9c7.9,0,14.3,6.4,14.3,14.3c0,7.9-6.4,14.3-14.3,14.3
				c-7.9,0-14.3-6.4-14.3-14.3C327.7,162.4,334.2,155.9,342.1,155.9z M360,232.7h-4.5v4.5c0,4.1-3.3,7.4-7.4,7.4
				c-2,0-3.9-0.8-5.2-2.2c-1.3-1.3-2.2-3.2-2.2-5.2v-4.5h-4.4c-4.1,0-7.4-3.3-7.4-7.4c0-2,0.8-3.9,2.2-5.2c1.3-1.3,3.2-2.2,5.2-2.2
				h4.4v-4.5c0-4.1,3.3-7.4,7.4-7.4c2,0,3.9,0.8,5.2,2.2c1.3,1.3,2.2,3.2,2.2,5.2v4.5h4.5c4.1,0,7.4,3.3,7.4,7.4
				C367.4,229.4,364.1,232.7,360,232.7z"/>
		</g>
		<g>
			<g>
				<path fill="#FFFFFF" d="M71.2,360.8v-46.9h20.2l7.9,30.3l7.2-30.3h20.3v46.9h-12.1v-37.5l-10.3,37.5H92.6l-10.4-37.6v37.6H71.2z
					"/>
				<path fill="#FFFFFF" d="M135.5,360.8v-46.9h13v46.9H135.5z"/>
				<path fill="#FFFFFF" d="M157.1,360.8v-46.9h18.5l14.9,33.4v-33.4h11.1v46.9h-17.9l-15.2-34.4v34.4H157.1z"/>
				<path fill="#FFFFFF" d="M210.2,360.8v-46.9h13v46.9H210.2z"/>
				<path fill="#FFFFFF" d="M231.7,360.8v-46.9H252l7.9,30.3l7.2-30.3h20.3v46.9h-12.1v-37.5L265,360.8h-11.8l-10.4-37.6v37.6H231.7
					z"/>
				<path fill="#FFFFFF" d="M292.4,360.8l18.1-46.9h15.8l18.5,46.9h-14.5l-3.2-9.2h-18.5l-3.2,9.2H292.4z M323.9,342.6l-6-19.6
					l-6.5,19.6H323.9z"/>
				<path fill="#FFFFFF" d="M349.7,360.8v-46.9h13v37.9h20.8v9.1H349.7z"/>
			</g>
			<g>
				<path fill="#FFFFFF" d="M400.7,314.3v0.3c0,3.6-1.6,6.3-4.7,8c-2.5,1.4-5.7,2.1-9.6,2.1c-4.9,0-8.6-1.3-11.2-4
					c-2.6-2.7-3.9-6.5-3.9-11.3c0-5.3,1.3-9.3,3.9-12.1c2.7-2.9,6.6-4.4,11.8-4.4c3.9,0,6.9,0.7,9.2,2.2c2.7,1.7,4.1,4.4,4.3,8h-8.8
					c-0.1-1.4-0.6-2.4-1.7-3.2c-0.9-0.7-2.1-1-3.5-1c-4.2,0-6.4,3.4-6.4,10.3c0,6.3,2.1,9.5,6.4,9.5c1.5,0,2.7-0.4,3.6-1.1
					c1-0.8,1.5-1.9,1.6-3.3H400.7z"/>
				<path fill="#FFFFFF" d="M405.1,324.3v-30.9h8.6v25h13.7v6H405.1z"/>
			</g>
		</g>
	</g>
</g>
</svg>
