<?xml version="1.0" encoding="utf-8"?>
<!-- Generator: Adobe Illustrator 18.0.0, SVG Export Plug-In . SVG Version: 6.00 Build 0)  -->
<!DOCTYPE svg PUBLIC "-//W3C//DTD SVG 1.1//EN" "http://www.w3.org/Graphics/SVG/1.1/DTD/svg11.dtd">
<svg version="1.1" id="Layer_1" xmlns="http://www.w3.org/2000/svg" xmlns:xlink="http://www.w3.org/1999/xlink" x="0px" y="0px"
	 width="498.6px" height="498.6px" viewBox="0 0 498.6 498.6" enable-background="new 0 0 498.6 498.6" xml:space="preserve">
<g>
	<g>
		<defs>
			<rect id="SVGID_1_" x="0" y="0" width="498.6" height="498.6"/>
		</defs>
		<clipPath id="SVGID_2_">
			<use xlink:href="#SVGID_1_"  overflow="visible"/>
		</clipPath>
		
			<linearGradient id="SVGID_3_" gradientUnits="userSpaceOnUse" x1="-325.7964" y1="554.8892" x2="-324.9364" y2="554.8892" gradientTransform="matrix(538.5181 -659.7556 656.7787 536.0883 -188926.9531 -511940.7813)">
			<stop  offset="0" style="stop-color:#2E3191"/>
			<stop  offset="0.61" style="stop-color:#0094D9"/>
			<stop  offset="1" style="stop-color:#8DD7F7"/>
		</linearGradient>
		<polygon clip-path="url(#SVGID_2_)" fill="url(#SVGID_3_)" points="299.2,742.8 742.8,199.4 199.4,-244.2 -244.2,299.2 		"/>
	</g>
	<path fill-rule="evenodd" clip-rule="evenodd" fill="#FFFFFF" d="M276.9,225v16.9c0,3.3,2.4,5.7,5.7,5.7l23.7,0
		c3.3,0,5.7-2.4,5.7-5.7l0-16.9c0-3.3-2.4-5.7-5.7-5.7l-23.7,0C279.3,219.3,276.9,221.7,276.9,225 M281.8,225.4c0-1,0.2-1.2,1.2-1.2
		h22.8c1,0,1.2,0.2,1.2,1.2v16c0,1-0.2,1.2-1.2,1.2l-22.8,0c-1,0-1.2-0.2-1.2-1.2V225.4z"/>
	<path fill-rule="evenodd" clip-rule="evenodd" fill="#FFFFFF" d="M276.9,257v16.9c0,3.3,2.4,5.7,5.7,5.7h23.7
		c3.3,0,5.7-2.4,5.7-5.7l0-16.9c0-3.3-2.4-5.7-5.7-5.7h-23.7C279.3,251.3,276.9,253.7,276.9,257 M281.8,257.5c0-1,0.2-1.2,1.2-1.2
		l22.8,0c1,0,1.2,0.2,1.2,1.2v16c0,1-0.2,1.2-1.2,1.2l-22.8,0c-1,0-1.2-0.2-1.2-1.2V257.5z"/>
	<polygon fill-rule="evenodd" clip-rule="evenodd" fill="#FFFFFF" points="62.5,219.3 62.5,240.2 41.5,219.3 36.6,219.3 36.6,247.6 
		41.5,247.6 41.5,226 63.1,247.6 67.4,247.6 67.4,219.3 	"/>
	<polygon fill-rule="evenodd" clip-rule="evenodd" fill="#FFFFFF" points="115.5,219.3 115.5,240.2 94.5,219.3 89.6,219.3 
		89.6,247.6 94.5,247.6 94.5,226 116.1,247.6 120.4,247.6 120.4,219.3 	"/>
	<polygon fill-rule="evenodd" clip-rule="evenodd" fill="#FFFFFF" points="225.1,219.3 225.1,240.2 204.2,219.3 199.3,219.3 
		199.3,247.6 204.2,247.6 204.2,226 225.8,247.6 230.1,247.6 230.1,219.3 	"/>
	<rect x="76" y="219.3" fill-rule="evenodd" clip-rule="evenodd" fill="#FFFFFF" width="4.9" height="28.3"/>
	<polygon fill-rule="evenodd" clip-rule="evenodd" fill="#FFFFFF" points="139.5,224.2 139.5,247.6 145,247.6 145,224.2 158,224.2 
		158,219.3 126.6,219.3 126.6,224.2 	"/>
	<polygon fill-rule="evenodd" clip-rule="evenodd" fill="#FFFFFF" points="163.5,219.3 163.5,247.6 191.2,247.6 191.2,242.7 
		169.1,242.7 169.1,235.3 186.3,235.3 186.3,230.3 169.1,230.3 169.1,224.2 191.2,224.2 191.2,219.3 	"/>
	<path fill-rule="evenodd" clip-rule="evenodd" fill="#FFFFFF" d="M238.7,219.3v28.3h23.4c5.4,0,9.9-6.3,9.9-14.2
		c0-7.8-4.4-14.2-9.9-14.2L238.7,219.3z M243.6,224.2h16.8c3.6,0,6.6,4.1,6.6,9.2c0,5.1-2.9,9.2-6.6,9.2l-16.8,0V224.2z"/>
	<path fill-rule="evenodd" clip-rule="evenodd" fill="#FFFFFF" d="M318.8,219.3v60.4H357c30.2,0,43.1-13.5,43.1-30.2
		c0-16.7-13.2-30.2-43.1-30.2L318.8,219.3z M338.5,227.3h10.3c21.1,0,30.4,9.9,30.4,22.2c0,12.2-9.1,22.2-30.4,22.2l-10.3,0V227.3z"
		/>
	<path fill-rule="evenodd" clip-rule="evenodd" fill="#FFFFFF" d="M402,277.8c0-4.7-0.1-6.4-0.1-10.3c10.4,2.6,15.4,3.7,22.7,4
		c2.8,0.1,7.9,0.3,10.3-0.2c2.4-0.5,3.9-0.8,5.6-2.4c1.7-1.7,1.8-3.7,1.8-4.9c0-1.3-0.9-2.1-1.4-2.8c-0.8-0.9-2.3-2-4.5-3.1
		c-2.6-1.5-10.1-4-18.1-7.5c-2.8-1.1-4.6-2-5.5-2.6c-3.4-1.8-5.9-4-7.5-5.3c-1.6-1.3-2.2-2.8-2.7-4.2c-0.5-1.4-0.6-2.2-0.6-3.7
		c0-2.8,0.8-5.8,3.4-8.2c2.6-2.4,6.5-4.3,11.6-5.7c5.1-1.4,11.5-2.1,19.2-2.1c4.4,0,7.6,0.3,11.9,0.9c2.3,0.3,4.4,0.9,7.6,1.3
		c0,3.2,0,5.4,0,9.4c-8.5-1.7-15-3.3-20.9-3.3c-4.3,0-7.7,0.6-10.3,1.7c-2.6,1.1-4.1,2.3-4.1,3.7c0,0.4,0,1.1,0,1.7
		c0,0.5,0.9,1.7,1.2,2.1c0.4,0.4,1,0.9,2,1.6c1,0.7,2.5,1.5,4.5,2.5c2,1,8.4,2.9,9.9,3.5l8.6,3.2c2.1,1.1,4.2,1.8,5.9,2.8
		c1.7,1,3.2,2.1,4.5,3c1.3,1,2,1.8,2.7,2.7c0.7,0.9,1.3,2.5,1.7,3.4c0.4,1,0.6,3.2,0.6,4.3c0,2.5-0.8,4.8-2.6,7.2
		c-1.7,2.3-4.7,4.7-8.3,6.1c-3.6,1.4-7.6,2.3-11.8,2.8c-4.2,0.5-7.6,0.6-12.2,0.6c-3.1,0-7.6-0.5-11.6-0.8
		C411.5,278.9,409.3,278.7,402,277.8"/>
</g>
</svg>
