<?xml version="1.0" encoding="utf-8"?>
<!-- Generator: Adobe Illustrator 18.0.0, SVG Export Plug-In . SVG Version: 6.00 Build 0)  -->
<!DOCTYPE svg PUBLIC "-//W3C//DTD SVG 1.1//EN" "http://www.w3.org/Graphics/SVG/1.1/DTD/svg11.dtd">
<svg version="1.1" id="Layer_1" xmlns="http://www.w3.org/2000/svg" xmlns:xlink="http://www.w3.org/1999/xlink" x="0px" y="0px"
	 width="498.6px" height="498.6px" viewBox="0 0 498.6 498.6" enable-background="new 0 0 498.6 498.6" xml:space="preserve">
<g>
	<g>
		<defs>
			<rect id="SVGID_1_" x="0" y="0" width="498.6" height="498.6"/>
		</defs>
		<clipPath id="SVGID_2_">
			<use xlink:href="#SVGID_1_"  overflow="visible"/>
		</clipPath>
		
			<linearGradient id="SVGID_3_" gradientUnits="userSpaceOnUse" x1="-325.1967" y1="555.5466" x2="-324.6767" y2="555.5466" gradientTransform="matrix(319.5865 -594.7863 594.7863 319.5865 -226336.8594 -370563.7813)">
			<stop  offset="0" style="stop-color:#2E3191"/>
			<stop  offset="1" style="stop-color:#EB008B"/>
		</linearGradient>
		<polygon clip-path="url(#SVGID_2_)" fill="url(#SVGID_3_)" points="386.9,706.5 706.5,111.7 111.7,-207.9 -207.9,386.9 		"/>
	</g>
	<g>
		<polygon fill="#FFFFFF" points="94.7,295.8 84.7,295.8 84.7,239.6 168,239.6 168,207.8 79.6,207.8 79.6,197.8 178,197.8 
			178,249.6 94.7,249.6 		"/>
	</g>
	<g>
		<polygon fill="#FFFFFF" points="340.7,295.8 330.7,295.8 330.7,239.6 414,239.6 414,207.8 325.6,207.8 325.6,197.8 424,197.8 
			424,249.6 340.7,249.6 		"/>
	</g>
	<g>
		<polygon fill="#FFFFFF" points="248.2,290 181.3,290 181.3,280 238.2,280 238.2,197.8 304.7,197.8 304.7,207.8 248.2,207.8 		"/>
	</g>
</g>
</svg>
